<?xml version="1.0" encoding="UTF-8" standalone="no"?>
<!-- Created with Inkscape (http://www.inkscape.org/) -->

<svg
   width="200mm"
   height="120mm"
   viewBox="0 0 200 120"
   version="1.1"
   id="svg5"
   xml:space="preserve"
   inkscape:version="1.2.1 (9c6d41e410, 2022-07-14)"
   sodipodi:docname="cancel.svg"
   xmlns:inkscape="http://www.inkscape.org/namespaces/inkscape"
   xmlns:sodipodi="http://sodipodi.sourceforge.net/DTD/sodipodi-0.dtd"
   xmlns="http://www.w3.org/2000/svg"
   xmlns:svg="http://www.w3.org/2000/svg"><sodipodi:namedview
     id="namedview7"
     pagecolor="#ffffff"
     bordercolor="#000000"
     borderopacity="0.25"
     inkscape:showpageshadow="2"
     inkscape:pageopacity="0.0"
     inkscape:pagecheckerboard="0"
     inkscape:deskcolor="#d1d1d1"
     inkscape:document-units="mm"
     showgrid="false"
     inkscape:zoom="0.18614378"
     inkscape:cx="-153.10746"
     inkscape:cy="419.03093"
     inkscape:window-width="1302"
     inkscape:window-height="745"
     inkscape:window-x="-8"
     inkscape:window-y="-8"
     inkscape:window-maximized="1"
     inkscape:current-layer="layer1" /><defs
     id="defs2" /><g
     inkscape:label="Layer 1"
     inkscape:groupmode="layer"
     id="layer1"><text
       xml:space="preserve"
       style="font-size:50.8px;font-family:Cambria;-inkscape-font-specification:Cambria;fill:#50317f;fill-opacity:1;stroke:#000521;stroke-width:0;stop-color:#000000"
       x="-2.1320887"
       y="186.91309"
       id="text901"><tspan
         sodipodi:role="line"
         id="tspan899"
         style="fill:#50317f;fill-opacity:1;stroke-width:0"
         x="-2.1320887"
         y="186.91309"></tspan></text><path
       style="fill:#2f3842;fill-opacity:1;stroke-width:0.663089"
       d="m 31.060242,117.46451 c 2.826035,-0.79248 12.024939,-6.17882 36.356632,-21.288154 L 99.990198,75.949123 132.99374,96.394846 c 27.9084,17.289334 33.61847,20.588184 36.98706,21.368374 13.96483,3.23428 28.11789,-5.5698 22.91858,-14.25681 -1.25418,-2.09548 -6.55667,-5.647164 -34.34587,-23.005276 L 125.69077,59.973917 158.55351,39.446706 c 27.7892,-17.358093 33.09169,-20.909785 34.34587,-23.005253 5.19931,-8.6870052 -8.95375,-17.4910922 -22.91858,-14.2568002 -3.36858,0.780176 -9.07809,4.078677 -36.98219,21.3653192 L 99.999958,43.992683 67.001374,23.549972 C 39.097303,6.2633298 33.387777,2.9648288 30.019191,2.1846528 16.054359,-1.0496392 1.9013217,7.7544478 7.1006187,16.441453 8.3547907,18.536939 13.657874,22.088967 41.451405,39.449747 L 74.319003,59.98 41.84956,80.242679 C 23.991379,91.387156 8.6969277,101.32906 7.8618957,102.33581 c -0.952285,1.14813 -1.534049,3.01461 -1.560679,5.00711 -0.05837,4.37415 3.172951,7.68001 9.5246873,9.74414 5.403096,1.75585 9.919885,1.86774 15.234338,0.37745 z"
       id="path248"
       sodipodi:nodetypes="scccssscscsscsssccsscss" /></g></svg>
