<?xml version="1.0" encoding="UTF-8" standalone="no"?>
<!-- Created with Inkscape (http://www.inkscape.org/) -->

<svg
   width="200mm"
   height="120mm"
   viewBox="0 0 200 120"
   version="1.1"
   id="svg5"
   xml:space="preserve"
   inkscape:version="1.2.1 (9c6d41e410, 2022-07-14)"
   sodipodi:docname="navbar.svg"
   xmlns:inkscape="http://www.inkscape.org/namespaces/inkscape"
   xmlns:sodipodi="http://sodipodi.sourceforge.net/DTD/sodipodi-0.dtd"
   xmlns="http://www.w3.org/2000/svg"
   xmlns:svg="http://www.w3.org/2000/svg"><sodipodi:namedview
     id="namedview7"
     pagecolor="#ffffff"
     bordercolor="#000000"
     borderopacity="0.25"
     inkscape:showpageshadow="2"
     inkscape:pageopacity="0.0"
     inkscape:pagecheckerboard="0"
     inkscape:deskcolor="#d1d1d1"
     inkscape:document-units="mm"
     showgrid="false"
     inkscape:zoom="0.18614378"
     inkscape:cx="-153.10746"
     inkscape:cy="419.03093"
     inkscape:window-width="1302"
     inkscape:window-height="745"
     inkscape:window-x="-8"
     inkscape:window-y="-8"
     inkscape:window-maximized="1"
     inkscape:current-layer="layer1" /><defs
     id="defs2" /><g
     inkscape:label="Layer 1"
     inkscape:groupmode="layer"
     id="layer1"><path
       style="fill:#2f3842;fill-opacity:1;stroke-width:0.588967"
       d="m 174.37806,117.68051 c -5.33029,-2.58033 -8.51963,-9.02108 -7.2949,-14.73178 1.75264,-8.172316 9.55424,-12.819376 17.71108,-10.549736 4.76751,1.32653 9.40498,7.53265 9.41773,12.603276 0.0132,5.33702 -3.30582,10.70583 -7.91244,12.79822 -3.32444,1.50999 -8.66544,1.45627 -11.92147,-0.1201 z m -160.711865,0.11996 c -4.6066101,-2.09238 -7.9258301,-7.4612 -7.9124201,-12.79821 0.0155,-5.070646 4.6502201,-11.276746 9.4177101,-12.603306 2.78765,-0.77562 112.061125,-0.77562 114.848765,0 4.7675,1.32656 9.40497,7.53266 9.41772,12.603306 0.0141,5.33701 -3.30581,10.70583 -7.91243,12.79821 -2.26743,1.02989 -5.2602,1.08496 -58.929675,1.08496 -53.66947,0 -56.66223,-0.0553 -58.92967,-1.08496 z M 174.25452,72.008874 c -9.90951,-4.93814 -9.84957,-19.08031 0.10189,-24.03934 13.27552,-6.61549 26.14998,9.58862 16.53921,20.81666 -4.20621,4.91399 -10.71686,6.17485 -16.64109,3.22268 z m -160.662385,0.32225 c -4.6132101,-2.2332 -7.8441401,-7.30622 -7.8441401,-12.31655 0,-5.01029 3.23093,-10.08332 7.8441401,-12.31655 2.52174,-1.22075 2.95153,-1.22971 59.00373,-1.22971 56.052235,0 56.482015,0.009 59.003755,1.22971 10.28182,4.97733 10.31261,19.53814 0.0521,24.61705 -2.50715,1.241 -2.6889,1.24485 -59.017135,1.2453 -56.09194,4.5e-4 -56.52064,-0.01 -59.04243,-1.22925 z m 160.662385,-45.6728 c -9.88785,-4.927322 -9.88785,-19.0612344 0,-23.9885444 5.90032,-2.94025902 12.44661,-1.67765003 16.62775,3.207079 9.67784,11.3063974 -3.24095,27.4524054 -16.62775,20.7814654 z m -159.128805,0.87972 c -3.25217,-0.97436 -6.3815901,-3.81403 -7.9754901,-7.237047 -2.35835,-5.064703 -1.62747,-10.2642 2.04605,-14.5559394 4.2234901,-4.93419603 -0.36173,-4.6014 63.3995901,-4.6014 53.669475,0 56.662245,0.05528 58.929675,1.08502 4.60662,2.09238 7.92587,7.461198 7.91243,12.7981734 -0.0123,4.907825 -4.60733,11.233043 -9.12325,12.558593 -2.7782,0.8155 -112.459595,0.77037 -115.189005,-0.0474 z"
       id="path302"
       sodipodi:nodetypes="csscsccccsscsscssssssssscsssssssssssscssss" /><text
       xml:space="preserve"
       style="font-size:50.8px;font-family:Cambria;-inkscape-font-specification:Cambria;fill:#50317f;fill-opacity:1;stroke:#000521;stroke-width:0;stop-color:#000000"
       x="-2.1320887"
       y="186.91309"
       id="text901"><tspan
         sodipodi:role="line"
         id="tspan899"
         style="fill:#50317f;fill-opacity:1;stroke-width:0"
         x="-2.1320887"
         y="186.91309"></tspan></text></g></svg>
